<?xml version="1.0" encoding="utf-8"?>
<!-- Generator: Adobe Illustrator 27.3.1, SVG Export Plug-In . SVG Version: 6.00 Build 0)  -->
<svg version="1.1" xmlns="http://www.w3.org/2000/svg" xmlns:xlink="http://www.w3.org/1999/xlink" x="0px" y="0px"
	 viewBox="0 0 90 30" style="enable-background:new 0 0 90 30;" xml:space="preserve">
<style type="text/css">
	.st0{fill:#C428C7;}
	.st1{fill:url(#SVGID_1_);}
	.st2{fill:url(#SVGID_00000034787885068057389430000013075588105875606689_);}
	.st3{fill:url(#SVGID_00000171693845312630520300000012830964625473158574_);}
	.st4{fill:url(#SVGID_00000142892557435666424250000001908669255982206645_);}
	.st5{fill:url(#SVGID_00000119814972106725498520000008210684617530341007_);}
</style>
<g id="svg12" xmlns:inkscape="http://www.inkscape.org/namespaces/inkscape" xmlns:sodipodi="http://sodipodi.sourceforge.net/DTD/sodipodi-0.dtd" xmlns:svg="http://www.w3.org/2000/svg" sodipodi:docname="logo.svg">
	
		<sodipodi:namedview  bordercolor="#000000" borderopacity="0.25" id="namedview14" inkscape:deskcolor="#d1d1d1" inkscape:pagecheckerboard="0" inkscape:pageopacity="0.0" inkscape:showpageshadow="2" pagecolor="#ffffff">
		</sodipodi:namedview>
	<g>
		<g>
			<path d="M26.2,29.1c0,0-8-13.3-17-19.3c2.6,2.3,10.6,9,16.3,19.7c0.6,0.3,0.9,0.5,0.9,0.5L26.2,29.1z"/>
			<path class="st0" d="M0,7.5c2.5,0.6,4.3,2.4,5.8,4.4c1.9,0.5,4,0.8,4.9,1.7c-1.5-0.6-3-0.7-4.1-0.6c1.4,2.2,2.5,4.7,3.8,6.6
				c2.8,1.1,5.9,0.6,7.6,2.3c-1-0.5-3.1-0.1-5.8-0.1c0.1,0.1,0.2,0.1,0.3,0.2c3.9,2.9,10.3,4.2,10.3,4.2C16.5,17.1,8.4,7,0,7.5z"/>
			<linearGradient id="SVGID_1_" gradientUnits="userSpaceOnUse" x1="-6.900783e-02" y1="9.8948" x2="22.2245" y2="17.1734">
				<stop  offset="0" style="stop-color:#F23E64"/>
				<stop  offset="1" style="stop-color:#6F5EED"/>
			</linearGradient>
			<path class="st1" d="M21.6,19.9c0.2-0.8,0.3-1.7,0.2-2.7c-1.7-4.7-3.9-7.7-7.1-9.3c0.8,1.3,1.7,3,1.7,4.4
				c-0.5-1.8-2.1-3.7-3.5-5.1C9.6,6.2,5.4,6.2,0.2,6.9c13.6-0.4,23.5,17.6,23.5,17.6c-0.4-2.3-0.9-4.4-1.5-6.2
				C22.1,18.9,21.9,19.5,21.6,19.9z"/>
		</g>
		<g>
			
				<linearGradient id="SVGID_00000106867043079796799810000001803758430004975034_" gradientUnits="userSpaceOnUse" x1="2.0497" y1="24.2965" x2="23.3249" y2="24.2965">
				<stop  offset="0" style="stop-color:#F23E64"/>
				<stop  offset="1" style="stop-color:#6F5EED"/>
			</linearGradient>
			<path style="fill:url(#SVGID_00000106867043079796799810000001803758430004975034_);" d="M7.8,20.7c0,0-4.1,5.1-3.6,5.4
				c1,0.5,4.1-0.8,8.9-0.8c4.8,0,10.2,2.3,10.2,2.3s-6.5-1.9-10.2-1.7C8.5,26,4,27.3,2,27.9C2.5,26.5,7.8,20.7,7.8,20.7z"/>
			
				<linearGradient id="SVGID_00000154387254434553217330000000007078054831765940_" gradientUnits="userSpaceOnUse" x1="3.3051" y1="28.5582" x2="23.2754" y2="28.5582">
				<stop  offset="0" style="stop-color:#F23E64"/>
				<stop  offset="1" style="stop-color:#6F5EED"/>
			</linearGradient>
			<path style="fill:url(#SVGID_00000154387254434553217330000000007078054831765940_);" d="M3.3,27.1L5.4,30c0,0,9.2-3.5,17.9,0
				c-8.4-4.1-16.8-1-17.6-1.1C4.9,28.9,3.3,27.1,3.3,27.1z"/>
			
				<linearGradient id="SVGID_00000013172963553013172710000010455878924265637515_" gradientUnits="userSpaceOnUse" x1="4.3292" y1="27.2839" x2="23.1925" y2="27.2839">
				<stop  offset="0" style="stop-color:#F23E64"/>
				<stop  offset="1" style="stop-color:#6F5EED"/>
			</linearGradient>
			<path style="fill:url(#SVGID_00000013172963553013172710000010455878924265637515_);" d="M4.3,28c0,0,8.6-3.8,18.9,0.4
				C14.5,24.6,7.2,26.6,4.3,28z"/>
			
				<linearGradient id="SVGID_00000174600337206169260190000014582671474553980811_" gradientUnits="userSpaceOnUse" x1="4.5936" y1="27.9307" x2="23.0934" y2="27.9307">
				<stop  offset="0" style="stop-color:#F23E64"/>
				<stop  offset="1" style="stop-color:#6F5EED"/>
			</linearGradient>
			<path style="fill:url(#SVGID_00000174600337206169260190000014582671474553980811_);" d="M4.6,28.7c0,0,8.3-3.9,18.5,0.3
				C14.4,25.2,7.5,27.3,4.6,28.7z"/>
		</g>
	</g>
</g>
<g id="Layer_2">
	<g>
		<path d="M45.4,22.1c-0.2,0.7-0.8,3.3-1.1,4.1H31.8v-0.7c2.4-0.2,2.6-0.4,2.6-2.5V12.7c0-2.3-0.3-2.4-2.2-2.6V9.4H40
			c2.4,0,3.4,0,3.7-0.1c0,0.6,0.1,2.6,0.2,3.9l-0.8,0.1c-0.2-0.9-0.5-1.4-0.8-2c-0.4-0.8-1-1-2.5-1h-2.4c-0.8,0-0.8,0.1-0.8,0.8V17
			h2.9c1.9,0,2.1-0.4,2.4-2.1h0.8v5.3h-0.8c-0.3-1.9-0.5-2.1-2.4-2.1h-2.8v5.1c0,1.8,0.6,2,1.9,2h2.4c1.6,0,1.8-0.2,2.4-0.9
			c0.5-0.5,1-1.6,1.4-2.4L45.4,22.1z"/>
		<path d="M56.7,22.9c-0.3,1-0.8,2.5-1.1,3.3h-8.6l-0.2-0.4c2.2-3.2,4.4-6.7,6.5-10c-0.1,0-2.4,0-2.5,0c-1.8,0-2.1,0.3-3.1,2.5
			L47,18c0.3-1,0.6-2.6,0.8-3.7h0.6c0.2,0.4,0.5,0.5,1.4,0.5h6.1l0.2,0.4c-2,3.1-4.3,6.6-6.4,10h2.8c2,0,2.5-0.5,3.7-2.7L56.7,22.9z
			"/>
		<path d="M67.6,22.9c-0.3,1-0.8,2.5-1.1,3.3h-8.6l-0.2-0.4c2.2-3.2,4.4-6.7,6.5-10c-0.1,0-2.4,0-2.5,0c-1.8,0-2.1,0.3-3.1,2.5
			L57.9,18c0.3-1,0.6-2.6,0.8-3.7h0.6c0.2,0.4,0.5,0.5,1.4,0.5h6.1l0.2,0.4c-2,3.1-4.3,6.6-6.4,10h2.8c2,0,2.5-0.5,3.7-2.7
			L67.6,22.9z"/>
		<path d="M79.9,15.6c-1.3,0.2-1.6,0.4-2.3,1.9c-0.6,1.4-1.3,3.2-3.1,7.7c-1.7,4.1-2.1,5.7-2.5,7c-0.2,0.5-0.4,0.7-0.8,0.7
			c-0.8,0-1.6-0.6-1.6-1.2c0-0.3,0.2-0.6,0.6-0.9c0.8-0.6,1.4-1.3,1.7-1.9c0.5-1.1,0.9-2,1.1-2.3c0.1-0.4,0.1-0.6-0.1-1.1
			c-1-2.9-2.4-6.1-3.2-7.9c-0.6-1.4-0.8-1.7-2.2-1.9v-0.7h5.2v0.7c-1.2,0.2-1.3,0.4-1,1.4l2.5,6.3c0.7-1.8,1.7-4.6,2.3-6.2
			c0.3-1,0.1-1.3-1.4-1.5v-0.7h4.7V15.6z"/>
	</g>
</g>
</svg>
